<svg width="15" height="12" viewBox="0 0 15 12" fill="none" xmlns="http://www.w3.org/2000/svg">
<path d="M4.63054 9.09812L1.52383 5.99141C1.35643 5.82401 1.12938 5.72996 0.892639 5.72996C0.655896 5.72996 0.42885 5.82401 0.261448 5.99141C0.0940456 6.15881 0 6.38586 0 6.6226C0 6.73982 0.023089 6.8559 0.0679483 6.9642C0.112808 7.0725 0.178559 7.1709 0.261448 7.25379L4.00383 10.9962C4.353 11.3453 4.91704 11.3453 5.26621 10.9962L14.7386 1.52383C14.906 1.35643 15 1.12938 15 0.892639C15 0.655897 14.906 0.42885 14.7386 0.261448C14.5712 0.0940458 14.3441 0 14.1074 0C13.8706 0 13.6436 0.0940458 13.4762 0.261448L4.63054 9.09812Z" fill="#171717"/>
</svg>
