<svg width="32" height="30" viewBox="0 0 32 30" fill="none" xmlns="http://www.w3.org/2000/svg">
<path d="M23.6777 30C23.2509 29.9997 22.8307 29.8952 22.4534 29.6957L16.0413 26.3252C15.9161 26.2596 15.7768 26.2254 15.6355 26.2254C15.4942 26.2254 15.3549 26.2596 15.2297 26.3252L8.81062 29.6957C8.37731 29.9237 7.88883 30.0259 7.40044 29.9908C6.91205 29.9557 6.44324 29.7846 6.04704 29.4968C5.65084 29.2091 5.34307 28.8162 5.15854 28.3627C4.97402 27.9091 4.9201 27.413 5.00288 26.9304L6.22724 19.7907C6.25121 19.6512 6.24098 19.508 6.19741 19.3733C6.15385 19.2386 6.07825 19.1166 5.97712 19.0176L0.792864 13.961C0.442046 13.6192 0.193894 13.1861 0.0764923 12.7106C-0.0409094 12.2351 -0.0228728 11.7363 0.128561 11.2705C0.279994 10.8047 0.558779 10.3907 0.933361 10.0751C1.30794 9.7596 1.76337 9.55522 2.24809 9.48512L9.41929 8.43568C9.55937 8.41526 9.6924 8.36113 9.80696 8.27796C9.92151 8.19479 10.0142 8.08506 10.0769 7.95818L13.283 1.46212C13.4997 1.02322 13.8348 0.653693 14.2506 0.395312C14.6663 0.13693 15.146 0 15.6355 0C16.125 0 16.6047 0.13693 17.0204 0.395312C17.4362 0.653693 17.7713 1.02322 17.988 1.46212L21.1941 7.95818C21.2566 8.08538 21.3492 8.19547 21.4637 8.27895C21.5783 8.36244 21.7115 8.41683 21.8517 8.43743L29.0229 9.48687C29.5076 9.55697 29.9631 9.76135 30.3376 10.0769C30.7122 10.3924 30.991 10.8065 31.1424 11.2723C31.2939 11.738 31.3119 12.2369 31.1945 12.7124C31.0771 13.1879 30.829 13.621 30.4781 13.9627L25.2921 19.0193C25.1907 19.1182 25.1148 19.2402 25.0709 19.3748C25.027 19.5095 25.0165 19.6528 25.0403 19.7924L26.2646 26.9321C26.3293 27.3088 26.311 27.6952 26.2108 28.064C26.1106 28.4329 25.931 28.7754 25.6846 29.0677C25.4382 29.3599 25.1309 29.5947 24.7843 29.7558C24.4376 29.9168 24.06 30.0002 23.6777 30ZM16.8564 24.7773L23.265 28.1407C23.4094 28.2164 23.572 28.2502 23.7346 28.2384C23.8973 28.2265 24.0533 28.1694 24.1852 28.0736C24.3171 27.9777 24.4195 27.8469 24.481 27.6959C24.5424 27.5449 24.5605 27.3797 24.533 27.219L23.3087 20.0793C23.2368 19.6598 23.2681 19.2292 23.3997 18.8246C23.5313 18.4199 23.7594 18.0534 24.0643 17.7565L29.2503 12.7017C29.3672 12.5878 29.4499 12.4435 29.4891 12.285C29.5283 12.1265 29.5223 11.9603 29.4719 11.8051C29.4215 11.6498 29.3286 11.5118 29.2038 11.4066C29.0791 11.3014 28.9273 11.2332 28.7658 11.2097L21.5946 10.1603C21.1734 10.0992 20.7734 9.93653 20.429 9.68636C20.0847 9.43618 19.8064 9.10599 19.6181 8.72427L16.4173 2.24396C16.3389 2.10416 16.2246 1.98777 16.0863 1.90677C15.948 1.82577 15.7906 1.78308 15.6303 1.78308C15.47 1.78308 15.3125 1.82577 15.1742 1.90677C15.0359 1.98777 14.9216 2.10416 14.8432 2.24396L11.6424 8.74002C11.4539 9.12141 11.1755 9.45125 10.8312 9.70111C10.4869 9.95096 10.087 10.1133 9.66591 10.1743L2.49471 11.2237C2.33319 11.2472 2.18145 11.3153 2.05666 11.4206C1.93188 11.5258 1.83903 11.6638 1.78861 11.819C1.7382 11.9743 1.73224 12.1405 1.7714 12.299C1.81057 12.4574 1.89329 12.6018 2.01022 12.7157L7.20147 17.7652C7.50711 18.063 7.73551 18.4308 7.86687 18.8368C7.99823 19.2428 8.02859 19.6746 7.95532 20.095L6.73097 27.2347C6.70329 27.3957 6.72124 27.5611 6.78277 27.7124C6.8443 27.8637 6.94696 27.9947 7.07912 28.0906C7.21128 28.1866 7.36766 28.2436 7.53055 28.2552C7.69345 28.2669 7.85634 28.2327 8.0008 28.1565L14.4077 24.7773C14.785 24.5781 15.2053 24.4741 15.632 24.4741C16.0587 24.4741 16.479 24.5781 16.8564 24.7773Z" fill="#171717"/>
</svg>
