<svg width="35" height="21" viewBox="0 0 35 21" fill="none" xmlns="http://www.w3.org/2000/svg">
<path d="M28.8808 8.38205C28.0705 8.38361 27.2687 8.54633 26.522 8.86074C25.7753 9.17515 25.0986 9.63497 24.5313 10.2134C24.5149 9.62618 24.3709 9.04954 24.1094 8.52349C23.8479 7.99744 23.4751 7.53458 23.0169 7.16701C23.4906 6.79369 23.8731 6.31747 24.1355 5.7744C24.3979 5.23133 24.5332 4.63567 24.5313 4.03255C24.5322 2.96582 24.1101 1.94225 23.3574 1.1863C22.6048 0.430358 21.5831 0.00374489 20.5163 1.54678e-05H4.03402C3.19906 -0.00229959 2.38407 0.255308 1.70213 0.7371C1.02018 1.21889 0.505087 1.90098 0.228307 2.68874C-0.0484735 3.4765 -0.0732191 4.33088 0.157503 5.13333C0.388225 5.93579 0.862976 6.64655 1.51589 7.16701C1.04336 7.54337 0.661759 8.02144 0.399484 8.56563C0.137209 9.10983 0.00100506 9.70616 0.00100506 10.3103C0.00100506 10.9144 0.137209 11.5107 0.399484 12.0549C0.661759 12.5991 1.04336 13.0772 1.51589 13.4535C0.8627 13.9723 0.387566 14.6819 0.156671 15.4835C-0.074224 16.285 -0.0493848 17.1386 0.227729 17.9254C0.504843 18.7122 1.02043 19.3929 1.70269 19.8729C2.38494 20.3528 3.19989 20.608 4.03402 20.6029H20.5163C21.2732 20.6029 22.0148 20.3898 22.6563 19.9881C23.2978 19.5864 23.8133 19.0122 24.1439 18.3313C24.71 19.0451 25.4301 19.6217 26.2503 20.0181C27.0706 20.4145 27.9698 20.6204 28.8808 20.6205C29.6844 20.6205 30.4801 20.4622 31.2225 20.1547C31.9649 19.8472 32.6395 19.3965 33.2077 18.8282C33.7759 18.26 34.2267 17.5854 34.5342 16.843C34.8417 16.1006 35 15.3049 35 14.5013C35 13.6977 34.8417 12.902 34.5342 12.1596C34.2267 11.4171 33.7759 10.7426 33.2077 10.1743C32.6395 9.60611 31.9649 9.15537 31.2225 8.84785C30.4801 8.54033 29.6844 8.38205 28.8808 8.38205ZM20.5163 18.842H4.03402C3.43623 18.842 2.86292 18.6045 2.44021 18.1818C2.01751 17.7591 1.78003 17.1858 1.78003 16.588C1.78003 15.9902 2.01751 15.4169 2.44021 14.9942C2.86292 14.5715 3.43623 14.334 4.03402 14.334H20.5163C21.1141 14.334 21.6874 14.5715 22.1102 14.9942C22.5329 15.4169 22.7703 15.9902 22.7703 16.588C22.7703 17.1858 22.5329 17.7591 22.1102 18.1818C21.6874 18.6045 21.1141 18.842 20.5163 18.842ZM20.5163 12.5731H4.03402C3.43389 12.5731 2.85834 12.3347 2.43399 11.9103C2.00963 11.486 1.77123 10.9104 1.77123 10.3103C1.77123 9.71014 2.00963 9.13459 2.43399 8.71023C2.85834 8.28587 3.43389 8.04747 4.03402 8.04747H20.5163C21.1165 8.04747 21.692 8.28587 22.1164 8.71023C22.5407 9.13459 22.7791 9.71014 22.7791 10.3103C22.7791 10.9104 22.5407 11.486 22.1164 11.9103C21.692 12.3347 21.1165 12.5731 20.5163 12.5731ZM20.5163 6.28654H4.03402C3.73687 6.28654 3.44262 6.22801 3.16809 6.1143C2.89355 6.00058 2.64411 5.8339 2.43399 5.62378C2.22387 5.41366 2.05719 5.16421 1.94347 4.88968C1.82976 4.61514 1.77123 4.3209 1.77123 4.02374C1.77123 3.72659 1.82976 3.43234 1.94347 3.15781C2.05719 2.88327 2.22387 2.63382 2.43399 2.4237C2.64411 2.21358 2.89355 2.04691 3.16809 1.93319C3.44262 1.81948 3.73687 1.76095 4.03402 1.76095H20.5163C21.1165 1.76095 21.692 1.99935 22.1164 2.42371C22.5407 2.84806 22.7791 3.42361 22.7791 4.02374C22.7791 4.62388 22.5407 5.19943 22.1164 5.62378C21.692 6.04814 21.1165 6.28654 20.5163 6.28654ZM28.8808 18.8596C28.0195 18.8578 27.1781 18.601 26.4627 18.1214C25.7474 17.6419 25.1901 16.9611 24.8613 16.1651C24.5326 15.3691 24.447 14.4935 24.6154 13.6489C24.7839 12.8043 25.1988 12.0285 25.8078 11.4195C26.4168 10.8105 27.1925 10.3956 28.0372 10.2272C28.8818 10.0587 29.7573 10.1443 30.5534 10.4731C31.3494 10.8018 32.0301 11.3591 32.5097 12.0745C32.9893 12.7898 33.2461 13.6312 33.2479 14.4925C33.2486 15.0662 33.1361 15.6344 32.9169 16.1645C32.6976 16.6947 32.376 17.1764 31.9703 17.582C31.5647 17.9877 31.083 18.3094 30.5528 18.5286C30.0226 18.7478 29.4545 18.8603 28.8808 18.8596Z" fill="#171717"/>
</svg>
