<svg width="24" height="30" viewBox="0 0 24 30" fill="none" xmlns="http://www.w3.org/2000/svg">
<path d="M23.2696 7.98296L15.7696 0.648975C15.5618 0.440958 15.3147 0.276435 15.0426 0.165021C14.7706 0.0536061 14.479 -0.00246536 14.1851 8.31301e-05H3.77263C2.77206 8.31301e-05 1.81248 0.397555 1.10498 1.10506C0.397472 1.81256 0 2.77215 0 3.77271V26.2274C0.00278748 27.2271 0.401154 28.185 1.10806 28.8919C1.81496 29.5988 2.77292 29.9972 3.77263 30H20.176C21.1757 29.9972 22.1337 29.5988 22.8406 28.8919C23.5475 28.185 23.9458 27.2271 23.9486 26.2274V9.59764C23.9492 9.29676 23.8894 8.99881 23.7728 8.72145C23.6561 8.4441 23.485 8.19297 23.2696 7.98296ZM21.3531 8.20932H17.8219C17.2215 8.20932 16.6458 7.97083 16.2213 7.54633C15.7968 7.12183 15.5583 6.54608 15.5583 5.94574V2.55038L21.3531 8.20932ZM22.4396 26.2274C22.4396 26.8277 22.2011 27.4035 21.7766 27.828C21.3521 28.2525 20.7763 28.4909 20.176 28.4909H3.77263C3.17229 28.4909 2.59654 28.2525 2.17204 27.828C1.74753 27.4035 1.50905 26.8277 1.50905 26.2274V3.77271C1.50905 3.17237 1.74753 2.59662 2.17204 2.17212C2.59654 1.74762 3.17229 1.50913 3.77263 1.50913H14.0493V5.94574C14.0493 6.9463 14.4467 7.90588 15.1542 8.61339C15.8617 9.32089 16.8213 9.71837 17.8219 9.71837H22.4396V26.2274Z" fill="#171717"/>
</svg>
