<svg width="30" height="30" viewBox="0 0 30 30" fill="none" xmlns="http://www.w3.org/2000/svg">
<path d="M15 30C12.0333 30 9.13319 29.1203 6.66645 27.472C4.19972 25.8238 2.27713 23.4811 1.14181 20.7403C0.00649932 17.9994 -0.290551 14.9834 0.288227 12.0736C0.867006 9.16393 2.29562 6.49119 4.3934 4.3934C6.49119 2.29562 9.16393 0.867006 12.0736 0.288227C14.9834 -0.290551 17.9994 0.00649932 20.7403 1.14181C23.4811 2.27713 25.8238 4.19972 27.472 6.66645C29.1203 9.13319 30 12.0333 30 15C29.9956 18.9769 28.4138 22.7897 25.6018 25.6018C22.7897 28.4138 18.9769 29.9956 15 30ZM15 1.50876C12.3317 1.50876 9.72329 2.3 7.50467 3.78244C5.28605 5.26488 3.55684 7.37192 2.53572 9.83713C1.5146 12.3023 1.24743 15.015 1.76799 17.632C2.28855 20.2491 3.57347 22.653 5.46025 24.5398C7.34704 26.4265 9.75095 27.7115 12.368 28.232C14.985 28.7526 17.6977 28.4854 20.1629 27.4643C22.6281 26.4432 24.7351 24.714 26.2176 22.4953C27.7 20.2767 28.4913 17.6683 28.4913 15C28.4873 11.4231 27.0646 7.9939 24.5353 5.46466C22.0061 2.93543 18.5769 1.51275 15 1.50876Z" fill="#171717"/>
<path d="M22.0804 17.6313C21.5225 19.0551 20.5484 20.2776 19.2851 21.1393C18.0219 22.0011 16.5283 22.462 14.9991 22.462C13.4699 22.462 11.9763 22.0011 10.7131 21.1393C9.44983 20.2776 8.4757 19.0551 7.91778 17.6313C7.5421 16.7412 6.24156 17.5091 6.61573 18.3933C7.30857 20.0451 8.47394 21.4555 9.96556 22.4474C11.4572 23.4393 13.2086 23.9685 14.9999 23.9685C16.7911 23.9685 18.5425 23.4393 20.0341 22.4474C21.5258 21.4555 22.6911 20.0451 23.384 18.3933C23.7566 17.5091 22.4576 16.7336 22.0804 17.6313Z" fill="#171717"/>
<path d="M10.4738 12.3764C11.5154 12.3764 12.3598 11.532 12.3598 10.4904C12.3598 9.44885 11.5154 8.60449 10.4738 8.60449C9.43225 8.60449 8.58789 9.44885 8.58789 10.4904C8.58789 11.532 9.43225 12.3764 10.4738 12.3764Z" fill="#171717"/>
<path d="M19.5266 12.3764C20.5681 12.3764 21.4125 11.532 21.4125 10.4904C21.4125 9.44885 20.5681 8.60449 19.5266 8.60449C18.485 8.60449 17.6406 9.44885 17.6406 10.4904C17.6406 11.532 18.485 12.3764 19.5266 12.3764Z" fill="#171717"/>
</svg>
