<?xml version="1.0" encoding="utf-8"?><svg xmlns="http://www.w3.org/2000/svg" xmlns:xlink="http://www.w3.org/1999/xlink"><symbol viewBox="0 0 18 11" id="arrowbottom" xmlns="http://www.w3.org/2000/svg"><path d="M.5 2.007L9 10.5l8.5-8.493L15.991.5 9 7.485 2.009.5.5 2.007z"/></symbol><symbol viewBox="0 0 10 17" id="arrowright" xmlns="http://www.w3.org/2000/svg"><path d="M1.507 17L10 8.5 1.507 0 0 1.509 6.985 8.5 0 15.491 1.507 17z"/></symbol><symbol viewBox="0 0 28 28" id="call" xmlns="http://www.w3.org/2000/svg"><path d="M28 19.45v6.84c0 .476-.192.931-.534 1.262a1.582 1.582 0 01-1.17.446 27.438 27.438 0 01-18.257-8.036A27.438 27.438 0 01.001 1.703 1.58 1.58 0 01.448.533 1.76 1.76 0 011.71 0h6.84a1.69 1.69 0 011.662 1.442l.904 6.324a1.688 1.688 0 01-.475 1.425l-2.683 2.683a.564.564 0 00-.094.683 22.965 22.965 0 007.578 7.578c.223.129.504.09.684-.094l2.682-2.682a1.686 1.686 0 011.426-.475l6.324.903A1.689 1.689 0 0128 19.45z"/></symbol><symbol viewBox="0 0 25 25" id="close" xmlns="http://www.w3.org/2000/svg"><path d="M23.649 0L12.5 11.149 1.351 0 0 1.351 11.149 12.5 0 23.649 1.351 25 12.5 13.851 23.649 25 25 23.649 13.851 12.5 25 1.351 23.649 0z"/></symbol><symbol viewBox="0 0 35 21" id="money" xmlns="http://www.w3.org/2000/svg"><path d="M28.88 8.382a6.109 6.109 0 00-4.349 1.831 4.05 4.05 0 00-1.514-3.046 3.975 3.975 0 001.514-3.134A4.029 4.029 0 0020.516 0H4.034a4.022 4.022 0 00-2.518 7.167 4.018 4.018 0 000 6.287 4.01 4.01 0 002.518 7.149h16.482a4.032 4.032 0 003.628-2.272 6.046 6.046 0 004.737 2.29 6.12 6.12 0 000-12.239zm-8.364 10.46H4.034a2.254 2.254 0 010-4.508h16.482a2.254 2.254 0 010 4.508zm0-6.269H4.034a2.263 2.263 0 110-4.526h16.482a2.263 2.263 0 110 4.526zm0-6.286H4.034a2.263 2.263 0 010-4.526h16.482a2.263 2.263 0 110 4.526zm8.365 12.573a4.359 4.359 0 11.018-8.718 4.359 4.359 0 01-.018 8.718z"/></symbol><symbol viewBox="0 0 15 12" id="ok" xmlns="http://www.w3.org/2000/svg"><path d="M4.63 9.098L1.525 5.991A.893.893 0 00.26 7.254l3.743 3.742a.89.89 0 001.262 0l9.473-9.472A.893.893 0 0013.476.26L4.631 9.098z"/></symbol><symbol viewBox="0 0 24 30" id="papper" xmlns="http://www.w3.org/2000/svg"><path d="M23.27 7.983L15.77.649A2.213 2.213 0 0014.185 0H3.773A3.773 3.773 0 000 3.773v22.454A3.783 3.783 0 003.773 30h16.403a3.783 3.783 0 003.773-3.773V9.597a2.25 2.25 0 00-.68-1.614zm-1.917.226h-3.531a2.264 2.264 0 01-2.264-2.263V2.55l5.795 5.66zm1.087 18.018a2.264 2.264 0 01-2.264 2.264H3.773a2.263 2.263 0 01-2.264-2.264V3.773a2.264 2.264 0 012.264-2.264h10.276v4.437a3.773 3.773 0 003.773 3.772h4.618v16.51z"/></symbol><symbol viewBox="0 0 30 34" id="play" xmlns="http://www.w3.org/2000/svg"><path d="M6.753.63C3.764-1.142 0 1.035 0 4.534v24.932c0 3.499 3.764 5.676 6.753 3.904l21.033-12.464c2.952-1.75 2.952-6.06 0-7.809L6.753.63z"/></symbol><symbol viewBox="0 0 30 30" id="smile" xmlns="http://www.w3.org/2000/svg"><path d="M15 30a15 15 0 1115-15 15.017 15.017 0 01-15 15zm0-28.491A13.491 13.491 0 1028.491 15 13.506 13.506 0 0015 1.509z"/><path d="M22.08 17.631a7.605 7.605 0 01-14.162 0c-.376-.89-1.676-.122-1.302.762a9.092 9.092 0 0016.768 0c.373-.884-.926-1.66-1.304-.762zm-11.606-5.255a1.886 1.886 0 100-3.772 1.886 1.886 0 000 3.772zm9.053 0a1.886 1.886 0 100-3.772 1.886 1.886 0 000 3.772z"/></symbol><symbol viewBox="0 0 32 30" id="star" xmlns="http://www.w3.org/2000/svg"><path d="M23.678 30a2.63 2.63 0 01-1.225-.304l-6.412-3.37a.874.874 0 00-.811 0l-6.42 3.37a2.624 2.624 0 01-3.807-2.766l1.224-7.14a.875.875 0 00-.25-.772L.793 13.96a2.624 2.624 0 011.455-4.476l7.171-1.05a.875.875 0 00.658-.477l3.206-6.496a2.623 2.623 0 014.705 0l3.206 6.496a.874.874 0 00.658.48l7.17 1.049a2.623 2.623 0 011.456 4.476l-5.186 5.056a.876.876 0 00-.252.773l1.225 7.14A2.624 2.624 0 0123.678 30zm-6.822-5.223l6.409 3.364a.875.875 0 001.268-.922l-1.224-7.14a2.624 2.624 0 01.755-2.323l5.186-5.054a.875.875 0 00-.484-1.492l-7.171-1.05a2.624 2.624 0 01-1.977-1.436l-3.2-6.48a.902.902 0 00-1.575 0l-3.2 6.496a2.624 2.624 0 01-1.977 1.434l-7.171 1.05a.874.874 0 00-.485 1.492l5.191 5.05a2.624 2.624 0 01.754 2.329l-1.224 7.14a.874.874 0 001.27.922l6.407-3.38a2.622 2.622 0 012.448 0z"/></symbol><symbol viewBox="0 0 28 28" id="wa" xmlns="http://www.w3.org/2000/svg"><path fill-rule="evenodd" clip-rule="evenodd" d="M14 0C6.262 0 0 6.258 0 14c0 2.92.89 5.62 2.472 7.94a.7.7 0 01.087.602L1.137 27.3l4.66-1.608a.7.7 0 01.602.077 13.917 13.917 0 007.6 2.231C21.743 28 28 21.742 28 14S21.742 0 14 0zM8.27 6.103l2.548 4.211-1.06 1.05a.7.7 0 00-.11.842c1.62 2.804 3.537 4.985 6.223 6.17a.7.7 0 00.777-.143l1.127-1.126 4.112 2.57c-.455 1.025-1.049 1.635-1.728 1.99-.787.412-1.747.49-2.844.263-2.193-.455-4.841-2.178-7-4.386-2.158-2.208-3.829-4.893-4.254-7.077-.213-1.092-.12-2.033.284-2.778.347-.642.937-1.192 1.925-1.586z"/></symbol></svg>