<svg width="150" height="42" viewBox="0 0 150 42" fill="none" xmlns="http://www.w3.org/2000/svg">
<path d="M70.9692 23.1749V19.6538H54.697V23.1749H60.6753V38.3269H64.9644V23.1749H70.9692Z" fill="white"/>
<path d="M79.0007 19.6538L70.6374 38.3269H75.0867L76.759 34.3255H85.4579L87.1245 38.3269H91.6814L83.2898 19.6538H79.0007ZM78.1297 31.0445L81.116 23.8991L84.091 31.0445H78.1297Z" fill="white"/>
<path d="M111.059 19.6538H106.474L101.555 27.2026H98.4326V19.6538H94.1152V38.3269H98.4326V30.8044H101.423L106.313 38.3269H111.245L104.926 28.6714L111.059 19.6538Z" fill="white"/>
<path d="M118 24.6683C118.536 24.1355 119.171 23.7265 119.903 23.4414C120.636 23.1562 121.441 23.0156 122.316 23.0156C123.245 23.0156 124.103 23.2013 124.889 23.5765C125.676 23.9329 126.39 24.475 127.035 25.2029L129.823 22.6422C128.93 21.5579 127.821 20.74 126.499 20.1885C125.195 19.6201 123.728 19.335 122.103 19.335C120.636 19.335 119.288 19.5751 118.053 20.0553C116.82 20.5168 115.738 21.1846 114.809 22.0551C113.898 22.9274 113.183 23.9498 112.663 25.1222C112.163 26.2966 111.913 27.5853 111.913 28.9904C111.913 30.3955 112.163 31.6843 112.663 32.8586C113.181 34.0329 113.898 35.0553 114.809 35.9258C115.721 36.7981 116.794 37.4734 118.027 37.9536C119.277 38.4151 120.627 38.6477 122.075 38.6477C123.719 38.6477 125.193 38.3626 126.498 37.7942C127.819 37.2258 128.928 36.3985 129.821 35.3142L127.033 32.7535C126.39 33.5002 125.674 34.0611 124.887 34.4344C124.101 34.7908 123.243 34.9672 122.314 34.9672C121.439 34.9672 120.634 34.8246 119.901 34.5413C119.167 34.2562 118.534 33.8472 117.998 33.3145C117.463 32.7817 117.043 32.1495 116.739 31.4198C116.453 30.69 116.311 29.8815 116.311 28.9923C116.311 28.1031 116.454 27.2946 116.739 26.5648C117.045 25.8351 117.463 25.2048 117.998 24.6701L118 24.6683Z" fill="white"/>
<path d="M145.924 19.6538L136.97 31.8174V19.6538H132.653V38.3269H136.756L145.709 26.1896V38.3269H150V19.6538H145.924Z" fill="white"/>
<path d="M55.8281 4.16646H59.1369V9.51851H60.3039V3.16846H54.6611V9.51851H55.8281V4.16646Z" fill="white"/>
<path d="M63.2884 7.68572H64.7287C65.2811 7.68572 65.7619 7.59567 66.1691 7.4137C66.582 7.23174 66.8987 6.97286 67.1174 6.63331C67.3361 6.28814 67.4455 5.88669 67.4455 5.42709C67.4455 4.96748 67.3361 4.55853 67.1174 4.22086C66.8987 3.88319 66.582 3.62243 66.1691 3.44047C65.7619 3.2585 65.2811 3.16846 64.7287 3.16846H62.1044V9.51851H63.2884V7.68572ZM63.2884 4.16646H64.6741C65.1906 4.16646 65.5828 4.27526 65.8505 4.49287C66.1182 4.71048 66.2521 5.02188 66.2521 5.42709C66.2521 5.83229 66.1182 6.14369 65.8505 6.3613C65.5828 6.57891 65.1906 6.68772 64.6741 6.68772H63.2884V4.16646Z" fill="white"/>
<path d="M73.3503 8.52989H69.7494V6.77964H72.83V5.8079H69.7494V4.15708H73.2221V3.16846H68.5654V9.51851H73.3503V8.52989Z" fill="white"/>
<path d="M75.8296 9.1919C76.3518 9.46953 76.9362 9.60835 77.5791 9.60835C78.1014 9.60835 78.5784 9.51831 79.0101 9.33634C79.4475 9.15438 79.8151 8.89175 80.113 8.54657L79.3476 7.82059C78.8857 8.32334 78.3182 8.57284 77.6432 8.57284C77.2058 8.57284 76.8137 8.47904 76.4668 8.29145C76.1199 8.09822 75.8503 7.83184 75.6561 7.49417C75.4619 7.15463 75.3639 6.77194 75.3639 6.34235C75.3639 5.91276 75.4619 5.52819 75.6561 5.19052C75.8503 4.85285 76.1218 4.58834 76.4668 4.40075C76.8137 4.20753 77.2058 4.10998 77.6432 4.10998C78.3182 4.10998 78.8857 4.3576 79.3476 4.85285L80.113 4.13624C79.8151 3.79107 79.4513 3.52844 79.0195 3.34647C78.5878 3.16451 78.1108 3.07446 77.5886 3.07446C76.9438 3.07446 76.3612 3.21703 75.839 3.5003C75.3224 3.77794 74.9152 4.16626 74.6173 4.66151C74.3194 5.15675 74.1705 5.71578 74.1705 6.33859C74.1705 6.96141 74.3156 7.52044 74.6079 8.01568C74.9057 8.51093 75.313 8.90113 75.8296 9.18627V9.1919Z" fill="white"/>
<path d="M82.4828 9.51851H83.6574V4.16646H85.7727V3.16846H80.3769V4.16646H82.4828V9.51851Z" fill="white"/>
<path d="M87.971 7.67634V3.16846H86.804V9.51851H87.9069L91.3344 5.02001V9.51851H92.4996V3.16846H91.3967L87.971 7.67634Z" fill="white"/>
<path d="M94.909 9.51851L96.5229 6.84154H97.6164V9.51851H98.7739V6.84154H99.8674L101.472 9.51851H102.839L100.842 6.21686L102.703 3.16846H101.444L99.8769 5.82666H98.7739V3.16846H97.6164V5.82666H96.4946L94.9373 3.16846H93.6779L95.5463 6.20748L93.5422 9.51851H94.909Z" fill="white"/>
<path d="M118.877 4.16646H122.041L122.05 3.16846H117.72V9.51851H118.887L118.877 4.16646Z" fill="white"/>
<path d="M124.228 7.68572H125.668C126.22 7.68572 126.701 7.59567 127.108 7.4137C127.521 7.23174 127.838 6.97286 128.057 6.63331C128.275 6.28814 128.385 5.88669 128.385 5.42709C128.385 4.96748 128.275 4.55853 128.057 4.22086C127.838 3.88319 127.521 3.62243 127.108 3.44047C126.701 3.2585 126.22 3.16846 125.668 3.16846H123.044V9.51851H124.228V7.68572ZM124.228 4.16646H125.613C126.13 4.16646 126.522 4.27526 126.79 4.49287C127.057 4.71048 127.191 5.02188 127.191 5.42709C127.191 5.83229 127.057 6.14369 126.79 6.3613C126.522 6.57891 126.13 6.68772 125.613 6.68772H124.228V4.16646Z" fill="white"/>
<path d="M134.052 9.51834H135.293L132.412 3.17017H131.245L128.373 9.51834H129.595L130.225 8.04948H133.415L134.052 9.51834ZM130.624 7.12464L131.818 4.35013L133.021 7.12464H130.624Z" fill="white"/>
<path d="M137.455 6.79652H140.752V9.51851H141.938V3.16846H140.752V5.79102H137.455V3.16846H136.269V9.51851H137.455V6.79652Z" fill="white"/>
<path d="M113.11 8.88224L112.309 8.12061C112.569 7.71541 112.761 7.23141 112.882 6.66863L111.962 6.36848C111.877 6.78494 111.758 7.14325 111.607 7.43777L110.231 6.13211C110.693 5.87136 111.023 5.61436 111.225 5.3611C111.43 5.10785 111.536 4.81708 111.536 4.49067C111.536 4.06108 111.379 3.72341 111.072 3.47579C110.761 3.22253 110.348 3.09497 109.831 3.09497C109.271 3.09497 108.823 3.23379 108.481 3.51143C108.148 3.78344 107.98 4.14362 107.98 4.59009C107.98 4.82646 108.035 5.05533 108.144 5.27856C108.253 5.49617 108.436 5.73254 108.691 5.98579C108.168 6.27656 107.791 6.57296 107.559 6.87499C107.329 7.17138 107.214 7.51656 107.214 7.90863C107.214 8.23504 107.314 8.52769 107.516 8.78844C107.716 9.04169 107.993 9.24242 108.346 9.38687C108.698 9.53131 109.096 9.60448 109.539 9.60448C110.372 9.60448 111.087 9.35122 111.681 8.84284L112.482 9.61386L113.112 8.87849L113.11 8.88224ZM109.236 4.09297C109.383 3.96541 109.579 3.90162 109.829 3.90162C110.059 3.90162 110.239 3.95603 110.367 4.06483C110.501 4.17364 110.567 4.32183 110.567 4.50943C110.567 4.68389 110.493 4.8471 110.348 4.99905C110.208 5.14349 109.956 5.31608 109.592 5.51681C109.368 5.29357 109.215 5.11723 109.136 4.99154C109.056 4.85835 109.017 4.71953 109.017 4.57509C109.017 4.37624 109.09 4.21491 109.236 4.09485V4.09297ZM109.618 8.68151C109.23 8.68151 108.917 8.60085 108.679 8.43577C108.442 8.27068 108.325 8.0587 108.325 7.79232C108.325 7.56346 108.397 7.3571 108.544 7.17514C108.696 6.98754 108.955 6.79432 109.319 6.59547L111.006 8.20127C110.61 8.52206 110.148 8.68151 109.62 8.68151H109.618Z" fill="white"/>
<path d="M149.992 8.52034V10.869H148.899V9.51834H144.005V10.869H142.902L142.911 8.52034H143.185C143.586 8.50158 143.865 8.20893 144.024 7.64053C144.188 7.06649 144.287 6.2467 144.325 5.18305L144.399 3.17017H149.074V8.52034H149.996H149.992ZM145.362 5.29185C145.332 6.11351 145.264 6.80011 145.162 7.34976C145.059 7.89378 144.895 8.28397 144.67 8.52034H147.905V4.16629H145.409L145.364 5.28998L145.362 5.29185Z" fill="white"/>
<path d="M0.282776 7.74022C0.282776 3.62066 3.63865 0.281494 7.77881 0.281494H33.6775C37.8176 0.281494 41.1735 3.62066 41.1735 7.74022V33.51C41.1735 37.6295 37.8176 40.9687 33.6775 40.9687H7.77881C3.63865 40.9687 0.282776 37.6295 0.282776 33.51V7.74022Z" fill="#FFDE40"/>
<path d="M0.282776 20.626H20.7291V40.9705H7.77881C3.63865 40.9705 0.282776 37.6314 0.282776 33.5118V20.626Z" fill="#171717"/>
<path d="M41.1736 20.626H20.7291V0.281494H33.6794C37.8196 0.281494 41.1754 3.62066 41.1754 7.74022V20.626H41.1736Z" fill="#171717"/>
<path d="M33.6775 41.25H7.77884C3.48973 41.25 0 37.7776 0 33.5099V7.74012C0 3.47236 3.48973 0 7.77884 0H33.6775C37.9666 0 41.4563 3.47236 41.4563 7.74012V33.5099C41.4563 37.7776 37.9666 41.25 33.6775 41.25ZM7.77884 0.562781C3.80081 0.562781 0.565597 3.78189 0.565597 7.74012V33.5099C0.565597 37.4681 3.80081 40.6872 7.77884 40.6872H33.6775C37.6555 40.6872 40.8907 37.4681 40.8907 33.5099V7.74012C40.8907 3.78189 37.6555 0.562781 33.6775 0.562781H7.77884Z" fill="white"/>
</svg>
